<svg
   width="24px"
   height="24px"
   viewBox="0 0 24 24"
   role="img"
   version="1.1"
   id="svg51"
   sodipodi:docname="anilist-svgrepo-com.svg"
   inkscape:version="1.1.1 (3bf5ae0d25, 2021-09-20)"
   xmlns:inkscape="http://www.inkscape.org/namespaces/inkscape"
   xmlns:sodipodi="http://sodipodi.sourceforge.net/DTD/sodipodi-0.dtd"
   xmlns="http://www.w3.org/2000/svg"
   xmlns:svg="http://www.w3.org/2000/svg">
  <defs
     id="defs55" />
  <sodipodi:namedview
     id="namedview53"
     pagecolor="#ffffff"
     bordercolor="#666666"
     borderopacity="1.0"
     inkscape:pageshadow="2"
     inkscape:pageopacity="0.0"
     inkscape:pagecheckerboard="0"
     showgrid="false"
     inkscape:zoom="33.416667"
     inkscape:cx="11.985037"
     inkscape:cy="12"
     inkscape:window-width="1920"
     inkscape:window-height="1011"
     inkscape:window-x="0"
     inkscape:window-y="32"
     inkscape:window-maximized="1"
     inkscape:current-layer="svg51" />
  <path
     d="M6.361 2.943 0 21.056h4.942l1.077-3.133H11.4l1.052 3.133H22.9c.71 0 1.1-.392 1.1-1.101V17.53c0-.71-.39-1.101-1.1-1.101h-6.483V4.045c0-.71-.392-1.102-1.101-1.102h-2.422c-.71 0-1.101.392-1.101 1.102v1.064l-.758-2.166zm2.324 5.948 1.688 5.018H7.144z"
     id="path49" />
  <path
     style="fill:#f9f9f9;stroke-width:0.0299252"
     d="M 0.05519966,20.97025 C 0.06476096,20.93312 1.4900509,16.866209 3.2225105,11.932668 l 3.149927,-8.9700745 h 2.3245694 2.3245701 l 0.02947,0.082294 c 0.01621,0.045262 0.180427,0.5132169 0.364924,1.0399002 0.184497,0.5266833 0.346318,0.9771831 0.359601,1.0011107 0.01328,0.023928 0.02959,-0.2723318 0.03623,-0.6583541 0.011,-0.6394714 0.01802,-0.7169524 0.07899,-0.8716618 0.08397,-0.2130746 0.259827,-0.3964101 0.478619,-0.4989843 l 0.169238,-0.079342 1.494024,-0.0088 c 1.431436,-0.00843 1.502435,-0.00625 1.694813,0.052185 0.370277,0.1124681 0.584433,0.3778639 0.654782,0.8114478 0.02098,0.1293057 0.03131,2.2296638 0.03147,6.394547 l 2.26e-4,6.201995 3.194514,2.39e-4 c 1.821673,1.2e-4 3.300729,0.01244 3.44167,0.02865 0.430486,0.0495 0.679017,0.212575 0.833386,0.546834 l 0.08654,0.187373 v 1.526184 c 0,1.394932 -0.0047,1.539521 -0.0541,1.68125 -0.113022,0.323976 -0.356795,0.532501 -0.708996,0.606479 -0.121853,0.0256 -1.539257,0.03223 -5.458854,0.02554 l -5.294264,-0.009 -0.521197,-1.563591 -0.521197,-1.563591 H 8.7103173 6.0091634 l -0.536699,1.563591 -0.5366989,1.563591 -2.448975,0.0077 -2.44897504,0.0077 z M 10.160184,13.219451 C 10.031325,12.836783 9.6544881,11.715711 9.3227686,10.72818 8.9910491,9.7406484 8.7082285,8.9211292 8.6942786,8.907026 8.6803284,8.8929226 8.632554,9.0006533 8.5881133,9.1464275 8.5436723,9.2922015 8.2052789,10.394514 7.8361275,11.59601 7.4669761,12.797506 7.1572315,13.810848 7.147806,13.84788 l -0.017137,0.06733 h 1.6319025 1.6319025 z"
     id="path192" />
  <path
     style="fill:#f9f9f9;stroke-width:0.0299252"
     d="M 0.10570096,20.872818 C 0.13455223,20.790524 0.44114301,19.915212 0.78701378,18.927681 2.0667349,15.273818 6.3419773,3.0992518 6.3750171,3.0147788 c 0.019392,-0.049581 0.1509627,-0.05212 2.326489,-0.044888 l 2.3059339,0.00767 0.369617,1.0454069 c 0.20329,0.5749738 0.376117,1.0519065 0.384061,1.0598504 0.03361,0.033609 0.04108,-0.044323 0.06698,-0.6989597 0.02413,-0.6099169 0.03476,-0.7050925 0.09356,-0.837719 0.08676,-0.1956962 0.247,-0.358533 0.459034,-0.4664631 l 0.171216,-0.087153 h 1.506644 c 1.666626,0 1.698461,0.0031 1.941979,0.1888329 0.07032,0.053638 0.164722,0.1576566 0.209773,0.2311531 0.181,0.2952797 0.172492,0.052065 0.180465,5.1587874 0.004,2.5688323 0.01121,5.3857203 0.016,6.2597523 l 0.0087,1.58915 3.298492,0.02142 c 3.597873,0.02336 3.555431,0.02119 3.830552,0.195669 0.143792,0.09119 0.288025,0.277084 0.365797,0.471454 0.04208,0.105174 0.04674,0.304268 0.03882,1.657519 -0.009,1.531859 -0.0093,1.538584 -0.07776,1.687613 -0.08989,0.195597 -0.276704,0.383471 -0.466933,0.469583 l -0.152583,0.06907 -5.391522,0.0078 -5.391521,0.0078 -0.518539,-1.556586 -0.518539,-1.556586 -2.7233559,0.0076 -2.7233557,0.0076 -0.5275478,1.541148 -0.5275479,1.541147 -0.1308062,0.0069 c -0.071944,0.0038 -1.1692004,0.01051 -2.4383489,0.01496 l -2.30754249,0.0081 z M 10.399002,13.891505 c 0,-0.01304 -0.364759,-1.100445 -0.8105771,-2.416459 -0.4458173,-1.316013 -0.8251343,-2.4365173 -0.842926,-2.4900086 -0.017792,-0.053491 -0.042093,-0.097257 -0.054004,-0.097257 -0.039619,0 -0.1079198,0.2119287 -0.8347308,2.5900396 -0.3971351,1.299419 -0.7278216,2.379412 -0.7348588,2.399985 -0.010134,0.02963 0.3293198,0.03741 1.6321506,0.03741 0.9047204,0 1.6449461,-0.01067 1.6449461,-0.02371 z"
     id="path268" />
</svg>