<svg
   width="24"
   height="24"
   viewBox="0 0 24 24"
   version="1.1"
   id="svg69"
   sodipodi:docname="iconmonstr-github-3.svg"
   inkscape:version="1.1.1 (3bf5ae0d25, 2021-09-20)"
   xmlns:inkscape="http://www.inkscape.org/namespaces/inkscape"
   xmlns:sodipodi="http://sodipodi.sourceforge.net/DTD/sodipodi-0.dtd"
   xmlns="http://www.w3.org/2000/svg"
   xmlns:svg="http://www.w3.org/2000/svg">
  <defs
     id="defs73" />
  <sodipodi:namedview
     id="namedview71"
     pagecolor="#ffffff"
     bordercolor="#666666"
     borderopacity="1.0"
     inkscape:pageshadow="2"
     inkscape:pageopacity="0.0"
     inkscape:pagecheckerboard="0"
     showgrid="false"
     inkscape:zoom="33.416667"
     inkscape:cx="11.985037"
     inkscape:cy="12"
     inkscape:window-width="1920"
     inkscape:window-height="1011"
     inkscape:window-x="0"
     inkscape:window-y="32"
     inkscape:window-maximized="1"
     inkscape:current-layer="svg69" />
  <path
     d="M19 0h-14c-2.761 0-5 2.239-5 5v14c0 2.761 2.239 5 5 5h14c2.762 0 5-2.239 5-5v-14c0-2.761-2.238-5-5-5zm-4.466 19.59c-.405.078-.534-.171-.534-.384v-2.195c0-.747-.262-1.233-.55-1.481 1.782-.198 3.654-.875 3.654-3.947 0-.874-.312-1.588-.823-2.147.082-.202.356-1.016-.079-2.117 0 0-.671-.215-2.198.82-.64-.18-1.324-.267-2.004-.271-.68.003-1.364.091-2.003.269-1.528-1.035-2.2-.82-2.2-.82-.434 1.102-.16 1.915-.077 2.118-.512.56-.824 1.273-.824 2.147 0 3.064 1.867 3.751 3.645 3.954-.229.2-.436.552-.508 1.07-.457.204-1.614.557-2.328-.666 0 0-.423-.768-1.227-.825 0 0-.78-.01-.055.487 0 0 .525.246.889 1.17 0 0 .463 1.428 2.688.944v1.489c0 .211-.129.459-.528.385-3.18-1.057-5.472-4.056-5.472-7.59 0-4.419 3.582-8 8-8s8 3.581 8 8c0 3.533-2.289 6.531-5.466 7.59z"
     id="path67" />
  <path
     style="fill:#f2f2f2;stroke-width:0.0299252"
     d="M 4.6533666,23.96789 C 2.2580052,23.804671 0.32262787,21.938305 0.04616759,19.524972 0.00378721,19.155017 0.00378721,4.8449832 0.04616759,4.475028 0.21794284,2.9755329 1.0076216,1.6804754 2.2597641,0.84477382 2.7541737,0.51479635 3.4043135,0.24467076 4.007014,0.11881184 4.1638408,0.08606249 4.4845236,0.04613206 4.7196428,0.03007756 5.2868244,-0.00865097 18.706142,-0.009147 19.27182,0.02953965 c 0.49718,0.034002 0.826065,0.09263213 1.210922,0.21587014 1.909796,0.6115498 3.242676,2.23570071 3.47109,4.22961821 0.04238,0.3699552 0.04238,14.679989 0,15.049944 -0.223243,1.94878 -1.530604,3.578876 -3.361732,4.19161 -0.438884,0.146859 -0.814375,0.219379 -1.311743,0.25334 -0.511444,0.03492 -14.1123801,0.03303 -14.6269904,-0.002 z m 5.1861399,-4.402667 c 0.029684,-0.01534 0.080132,-0.0708 0.1121076,-0.123243 0.053803,-0.08824 0.058146,-0.156139 0.058249,-0.910808 9e-5,-0.656741 -0.0076,-0.815461 -0.039505,-0.815461 -0.021789,0 -0.1800188,0.02152 -0.3516209,0.04782 -0.5403323,0.08283 -1.0462376,0.02393 -1.4636904,-0.1704 C 7.7408801,17.400329 7.488176,17.136705 7.2989416,16.700033 7.240361,16.564853 7.1438732,16.371122 7.0845244,16.26952 6.9676133,16.069373 6.6123833,15.698981 6.3764026,15.531172 6.2953942,15.473566 6.2017577,15.389255 6.1683214,15.343813 c -0.057089,-0.07759 -0.05771,-0.0857 -0.010192,-0.133221 0.076532,-0.07653 0.395897,-0.08801 0.6064189,-0.02179 0.3579343,0.112584 0.6681433,0.373542 0.9491668,0.798471 0.291764,0.44117 0.6453008,0.712554 1.0437549,0.801214 0.2594197,0.05772 0.7345901,0.02429 1.0352837,-0.07285 0.2168783,-0.07006 0.2486573,-0.08945 0.2635333,-0.160745 0.08026,-0.384704 0.189608,-0.641584 0.369105,-0.867127 0.137858,-0.173223 0.138967,-0.171308 -0.116165,-0.200563 C 9.5314591,15.398017 8.6959335,15.095006 8.2084327,14.725328 7.4178503,14.125821 7.0095615,13.253428 6.9316561,11.997234 6.8677978,10.967543 7.0746616,10.247634 7.6316738,9.5610973 L 7.7287912,9.4413965 7.6589638,9.1720698 C 7.5345995,8.6923921 7.5637652,8.092367 7.7383311,7.539252 7.7951033,7.3593678 7.8114329,7.3359678 7.8913448,7.3199853 c 0.3264144,-0.065283 1.1115289,0.218834 1.8260155,0.6607972 0.2079576,0.1286374 0.2851717,0.161605 0.3473397,0.148303 0.910442,-0.1948052 1.263848,-0.2370009 1.965225,-0.2346434 0.564074,0.0019 1.045668,0.051932 1.541147,0.1601183 0.156359,0.034141 0.32039,0.068644 0.364514,0.076675 0.06051,0.011013 0.145868,-0.026004 0.347339,-0.1506296 0.572196,-0.3539456 1.132026,-0.5879614 1.547232,-0.646762 0.338153,-0.047888 0.354072,-0.038476 0.444236,0.2626528 0.111492,0.3723561 0.139773,0.5690875 0.138021,0.9601218 -0.0012,0.2599726 -0.01873,0.4129442 -0.07058,0.6145774 l -0.06903,0.2684526 0.140186,0.1829015 c 0.535445,0.6985961 0.718796,1.3627621 0.655559,2.3746841 -0.0698,1.1169 -0.380297,1.890582 -0.994655,2.478419 -0.347162,0.332175 -0.668237,0.531704 -1.147355,0.713015 -0.273545,0.103516 -0.827844,0.237116 -1.175916,0.283425 -0.156359,0.0208 -0.288821,0.04153 -0.294361,0.04605 -0.0055,0.0045 0.04603,0.07921 0.114609,0.165964 0.163741,0.207147 0.259309,0.400201 0.3368,0.680355 0.05899,0.21325 0.06453,0.325407 0.08034,1.625929 0.0165,1.35763 0.01874,1.39925 0.07969,1.481296 0.08961,0.120632 0.255673,0.169715 0.440262,0.130128 0.364148,-0.0781 1.161836,-0.445028 1.720752,-0.791537 1.865373,-1.156469 3.190547,-3.062318 3.625,-5.213434 0.251274,-1.244134 0.188666,-2.692851 -0.16719,-3.8687026 C 18.915204,7.1794989 17.023588,5.2238457 14.530916,4.3980078 13.650396,4.106286 12.971414,3.999331 12,3.999331 c -0.942811,0 -1.628659,0.1045251 -2.4688279,0.3762556 C 8.304661,4.7722701 7.2671488,5.4076007 6.3418722,6.3285857 5.1202836,7.5445086 4.3505491,9.0661412 4.0681984,10.823249 c -0.073837,0.4595 -0.090718,1.55002 -0.031825,2.055952 0.318111,2.732808 1.9355623,5.062812 4.3542104,6.272416 0.8467314,0.423463 1.2223883,0.530698 1.4489227,0.413606 z"
     id="path342" />
</svg>