<svg
   version="1.1"
   id="Layer_1"
   x="0px"
   y="0px"
   viewBox="0 0 512 512"
   style="enable-background:new 0 0 512 512;"
   xml:space="preserve"
   sodipodi:docname="itch-io.svg"
   inkscape:version="1.1.1 (3bf5ae0d25, 2021-09-20)"
   xmlns:inkscape="http://www.inkscape.org/namespaces/inkscape"
   xmlns:sodipodi="http://sodipodi.sourceforge.net/DTD/sodipodi-0.dtd"
   xmlns="http://www.w3.org/2000/svg"
   xmlns:svg="http://www.w3.org/2000/svg"><defs
   id="defs57" /><sodipodi:namedview
   id="namedview55"
   pagecolor="#ffffff"
   bordercolor="#666666"
   borderopacity="1.0"
   inkscape:pageshadow="2"
   inkscape:pageopacity="0.0"
   inkscape:pagecheckerboard="0"
   showgrid="false"
   inkscape:zoom="1.5664062"
   inkscape:cx="255.6808"
   inkscape:cy="256"
   inkscape:window-width="1920"
   inkscape:window-height="1011"
   inkscape:window-x="0"
   inkscape:window-y="32"
   inkscape:window-maximized="1"
   inkscape:current-layer="g52" />
<g
   id="g52">
	<path
   d="M89.7,56.1C70,67.7,31.4,112.1,31,123.8v19.3c0,24.5,22.9,45.9,43.6,45.9c24.9,0,45.7-20.7,45.7-45.2   c0,24.5,20,45.2,45,45.2s44.3-20.7,44.3-45.2c0,24.5,21.3,45.2,46.2,45.2h0.5c24.9,0,46.2-20.7,46.2-45.2   c0,24.5,19.4,45.2,44.3,45.2s45-20.7,45-45.2c0,24.5,20.8,45.2,45.7,45.2c20.8,0,43.6-21.5,43.6-45.9v-19.3   c-0.4-11.7-39-56.1-58.7-67.8c-60.9-2.1-103.2-2.5-166.3-2.5S107,54.5,89.7,56.1z M209.3,177.5c-19.9,34.7-70.4,35-90.2,0.2   c-11.9,20.9-39,29-50.6,25C64.9,239,56.1,417,84.4,446c72.3,16.9,273,16.4,343.2,0c28.6-29.2,19.3-209.7,16-243.2   c-11.7,4-38.8-4.2-50.6-25c-19.9,34.8-70.4,34.4-90.2-0.2c-6.4,11.3-20.8,26.2-46.8,26.2C236.8,204.3,218.8,194.2,209.3,177.5   L209.3,177.5z M171.7,226.1c14.9,0,28.1,0,44.5,17.9c26.5-2.7,53.2-2.7,79.7,0c16.4-17.8,29.6-17.8,44.5-17.8   c47.3,0,58.9,70.1,75.8,130.5c15.6,56.2-5,57.5-30.7,57.6c-38.1-1.4-59.2-29.1-59.2-56.7c-35.5,5.8-92.1,7.9-140.6,0   c0,27.7-21.1,55.3-59.2,56.7c-25.7-0.1-46.3-1.4-30.7-57.6C112.7,296.2,124.4,226.2,171.7,226.1L171.7,226.1z M256,269.4   c0,0-40.1,36.8-47.3,49.9l26.2-1.1v22.9c0,1.4,19.3,0.1,21.1,0.1c10.5,0.5,21.1,0.9,21.1-0.1v-22.8l26.2,1.1   C296.1,306.2,256,269.4,256,269.4L256,269.4z"
   id="path50" />
<path
   style="fill:#ececec;stroke-width:0.638404"
   d="m 216.2988,457.74277 c -32.76238,-0.86269 -61.60035,-2.58363 -86.37288,-5.15442 C 108.32983,450.3472 87.374007,446.9237 84.708104,445.20123 79.419278,441.78406 73.583766,424.80394 70.257209,403.15212 66.647177,379.65523 65.433245,360.45571 64.989643,319.8404 64.558668,280.3812 65.915211,235.494 68.375618,207.8005 l 0.39703,-4.46883 5.875795,0.20066 c 9.631825,0.32894 19.566569,-2.74343 28.764987,-8.89571 4.7473,-3.17518 13.25033,-11.57052 14.50257,-14.31888 0.92168,-2.02287 1.26846,-1.97261 2.66162,0.38583 5.86077,9.92149 18.07638,18.48751 31.00731,21.74342 7.26659,1.82967 20.93519,1.48772 27.80659,-0.69564 11.89658,-3.7801 23.30782,-12.37358 28.81848,-21.70237 l 1.05898,-1.79272 2.46829,3.69628 c 4.4862,6.71815 13.48672,14.12642 21.44433,17.65071 15.34745,6.79712 35.94312,5.73702 50.88538,-2.61917 4.94847,-2.76735 13.21585,-10.35329 16.40049,-15.04871 2.00766,-2.96007 3.09363,-3.88647 3.09363,-2.63905 0,1.34484 6.84547,9.38659 10.72195,12.59566 5.23424,4.33308 14.03914,8.77318 20.87904,10.52881 10.31173,2.64677 24.59985,1.47428 34.29746,-2.81447 8.14281,-3.60113 15.58587,-9.65383 20.74073,-16.86635 l 2.85398,-3.9932 1.59674,2.39719 c 3.97877,5.97336 12.70226,13.43311 19.99239,17.09619 8.47996,4.26093 20.12822,6.7613 25.83156,5.54489 1.59314,-0.33978 2.89662,-0.54608 2.89662,-0.45844 0,0.0876 0.41518,6.01391 0.92263,13.16949 2.11573,29.83436 2.57577,45.74426 2.58213,89.29942 0.006,44.31249 -0.29747,53.37389 -2.5909,77.24688 -3.05341,31.78392 -9.39842,55.75495 -16.29385,61.55707 -4.22956,3.55894 -43.63536,8.64492 -86.76465,11.19843 -33.38307,1.97647 -90.15996,2.86037 -124.92813,1.94488 z m -74.25391,-45.28126 c 11.16568,-2.84964 23.92979,-10.52848 30.39987,-18.28845 7.65676,-9.18321 12.12448,-19.79496 13.35431,-31.71919 0.24444,-2.37008 0.70014,-4.30923 1.01267,-4.30923 0.31253,0 3.36734,0.41604 6.78847,0.92454 10.64235,1.58182 26.52724,2.8783 44.36523,3.62095 24.7501,1.03042 57.66452,-0.44363 80.03945,-3.58451 3.76519,-0.52854 7.0496,-0.96098 7.2987,-0.96098 0.24909,0 0.65093,1.93915 0.89296,4.30923 1.5845,15.51613 9.55161,30.1953 21.18185,39.02694 5.66409,4.30113 15.7032,9.17613 22.57671,10.96325 7.65268,1.98972 25.60616,2.49807 33.29677,0.94281 8.9911,-1.81826 13.12772,-4.79489 16.44118,-11.83076 1.57336,-3.3409 1.65274,-4.02219 1.6364,-14.04489 -0.0209,-12.82456 0.0299,-12.56854 -9.88843,-49.79551 -11.88316,-44.60147 -16.682,-59.44416 -24.25257,-75.01247 -5.22016,-10.73486 -9.50095,-16.96588 -16.22788,-23.62095 -10.02439,-9.91728 -18.19784,-13.10431 -33.50659,-13.065 -17.60035,0.0452 -26.52922,3.26996 -37.47883,13.536 l -4.39411,4.11979 -5.42644,-0.65793 c -7.33562,-0.88941 -60.65277,-0.86138 -67.99002,0.0358 l -5.74564,0.70252 -3.83042,-3.74568 c -7.39727,-7.23362 -14.80257,-11.3 -23.85081,-13.09693 -7.69739,-1.52865 -25.0066,-1.02376 -30.27008,0.88295 -7.21684,2.61432 -11.48558,5.3798 -17.41342,11.28123 -6.70185,6.67197 -10.9839,12.91171 -16.215,23.62825 -7.5894,15.5478 -12.35125,30.25669 -24.27817,74.99301 -9.981958,37.44102 -9.898321,37.02032 -9.903456,49.81497 -0.004,10.00889 0.07815,10.7086 1.649343,14.04489 3.195604,6.78561 7.359675,9.92317 15.583333,11.74181 6.85287,1.5155 26.85887,1.02557 34.15462,-0.83641 z"
   id="path213" /><path
   style="fill:#ececec;stroke-width:0.638404"
   d="m 68.807647,188.01654 c -15.761255,-2.85832 -31.315196,-17.66352 -35.886264,-34.15878 -1.147598,-4.14124 -1.319569,-6.56261 -1.314149,-18.50328 0.006,-13.15444 0.07136,-13.87839 1.53805,-17.02843 C 40.2931,102.97452 70.011796,69.954665 87.232496,58.230826 l 2.96317,-2.017324 16.827354,-0.637896 c 9.25505,-0.350843 48.71563,-0.975863 87.6902,-1.388934 72.34407,-0.766736 155.13164,-0.20752 205.88528,1.39072 l 21.38654,0.673465 4.14962,2.806907 c 15.29211,10.343952 42.80569,40.866871 51.84639,57.517166 l 2.73715,5.04103 -0.0193,13.40648 c -0.0213,14.73892 -0.55656,18.05614 -4.16112,25.78735 -6.63653,14.23428 -20.91619,25.513 -34.78856,27.47757 -8.32792,1.17938 -18.69751,-1.1656 -27.30826,-6.17548 -5.11689,-2.9771 -12.98678,-10.87568 -16.00697,-16.06532 -3.06499,-5.26662 -5.39952,-12.26786 -6.0361,-18.10219 l -0.50437,-4.62267 -0.49506,3.83042 c -1.61235,12.47511 -6.3105,21.8441 -14.90874,29.73075 -7.0507,6.46719 -15.10729,10.17168 -24.72907,11.37064 -13.29866,1.65714 -25.43033,-2.68302 -35.51427,-12.70538 -4.6599,-4.63145 -5.95572,-6.40587 -8.405,-11.50939 -2.95465,-6.15654 -4.86687,-13.05111 -4.98408,-17.97025 -0.0554,-2.32475 -0.1908,-2.0111 -0.8812,2.04124 -1.24451,7.30461 -2.13235,10.08239 -4.99921,15.64089 -3.71486,7.20271 -12.1704,15.66575 -19.30723,19.3244 -14.38102,7.37232 -29.03679,7.36589 -43.33922,-0.019 -3.91189,-2.01986 -6.52406,-4.03751 -10.91003,-8.42693 -8.14079,-8.14717 -11.03286,-14.12366 -13.60527,-28.11534 l -0.58686,-3.19202 -0.0849,3.19202 c -0.45843,17.23473 -13.86597,34.57875 -31.02863,40.1387 -11.16471,3.61688 -24.4531,2.04553 -34.937,-4.13128 -12.06221,-7.10672 -20.41856,-19.74581 -22.12097,-33.45825 -0.33358,-2.68692 -0.73323,-5.01203 -0.8881,-5.16691 -0.15488,-0.15487 -0.4416,1.83408 -0.63716,4.41989 -0.69691,9.21461 -4.8012,17.90299 -12.14607,25.71199 -7.608369,8.08916 -17.046305,12.90205 -27.991896,14.27451 -2.917835,0.36586 -5.456333,0.63929 -5.641105,0.6076 -0.184773,-0.0317 -2.409916,-0.43374 -4.944762,-0.89343 z"
   id="path252" /><path
   style="fill:#ececec;stroke-width:0.638404"
   d="m 235.99613,341.04942 c -0.52996,-0.17665 -0.74426,-3.55416 -0.74426,-11.73014 v -11.48206 l -10.69327,0.393 c -5.88129,0.21614 -11.62693,0.53623 -12.76808,0.71131 -1.14568,0.17577 -2.07481,0.0382 -2.07481,-0.30719 0,-2.20363 17.74532,-21.38069 35.9156,-38.81338 l 10.18722,-9.77368 2.00594,1.63972 c 4.15157,3.39361 31.44127,30.84127 36.45114,36.66213 5.17641,6.01435 8.00868,9.72427 8.00868,10.49039 0,0.21892 -1.79551,0.25405 -3.99003,0.0781 -2.19451,-0.17598 -7.94015,-0.47856 -12.76808,-0.67238 l -8.77805,-0.35242 v 11.50748 c 0,6.32911 -0.21546,11.5476 -0.4788,11.59665 -1.19552,0.22268 -39.61243,0.27276 -40.2732,0.0525 z"
   id="path291" /></g>
</svg>