<svg
   width="24"
   height="24"
   viewBox="0 0 24 24"
   version="1.1"
   id="svg56"
   sodipodi:docname="iconmonstr-linkedin-3.svg"
   inkscape:version="1.1.1 (3bf5ae0d25, 2021-09-20)"
   xmlns:inkscape="http://www.inkscape.org/namespaces/inkscape"
   xmlns:sodipodi="http://sodipodi.sourceforge.net/DTD/sodipodi-0.dtd"
   xmlns="http://www.w3.org/2000/svg"
   xmlns:svg="http://www.w3.org/2000/svg">
  <defs
     id="defs60" />
  <sodipodi:namedview
     id="namedview58"
     pagecolor="#ffffff"
     bordercolor="#666666"
     borderopacity="1.0"
     inkscape:pageshadow="2"
     inkscape:pageopacity="0.0"
     inkscape:pagecheckerboard="0"
     showgrid="false"
     inkscape:zoom="33.416667"
     inkscape:cx="11.985037"
     inkscape:cy="12"
     inkscape:window-width="1920"
     inkscape:window-height="1011"
     inkscape:window-x="0"
     inkscape:window-y="32"
     inkscape:window-maximized="1"
     inkscape:current-layer="svg56" />
  <path
     d="M19 0h-14c-2.761 0-5 2.239-5 5v14c0 2.761 2.239 5 5 5h14c2.762 0 5-2.239 5-5v-14c0-2.761-2.238-5-5-5zm-11 19h-3v-11h3v11zm-1.5-12.268c-.966 0-1.75-.79-1.75-1.764s.784-1.764 1.75-1.764 1.75.79 1.75 1.764-.783 1.764-1.75 1.764zm13.5 12.268h-3v-5.604c0-3.368-4-3.113-4 0v5.604h-3v-11h3v1.765c1.396-2.586 7-2.777 7 2.476v6.759z"
     id="path54" />
  <path
     style="fill:#f2f2f2;stroke-width:0.0299252"
     d="M 4.6533666,23.96789 C 2.2580052,23.804671 0.32262787,21.938305 0.04616759,19.524972 0.00378721,19.155017 0.00378721,4.8449832 0.04616759,4.475028 0.21794284,2.9755329 1.0076216,1.6804754 2.2597641,0.84477382 2.7541737,0.51479635 3.4043135,0.24467076 4.007014,0.11881184 4.1638408,0.08606249 4.4845236,0.04613206 4.7196428,0.03007756 5.2868244,-0.00865097 18.706142,-0.009147 19.27182,0.02953965 c 0.49718,0.034002 0.826065,0.09263213 1.210922,0.21587014 1.909796,0.6115498 3.242676,2.23570071 3.47109,4.22961821 0.04238,0.3699552 0.04238,14.679989 0,15.049944 -0.223243,1.94878 -1.530604,3.578876 -3.361732,4.19161 -0.438884,0.146859 -0.814375,0.219379 -1.311743,0.25334 -0.511444,0.03492 -14.1123801,0.03303 -14.6269904,-0.002 z M 8.0049875,13.496259 V 7.9900249 H 6.4937656 4.9825436 v 5.5062341 5.506235 h 1.511222 1.5112219 z m 4.9980245,2.685786 c 5.18e-4,-2.821131 0.01227,-3.208422 0.108277,-3.56846 0.06852,-0.256962 0.284071,-0.689686 0.443403,-0.890148 0.25933,-0.326271 0.648758,-0.57873 1.051672,-0.681778 0.920751,-0.235488 1.827326,0.268432 2.183024,1.213433 0.181438,0.482036 0.173284,0.31995 0.184759,3.672589 l 0.01052,3.074813 h 1.511143 1.511142 l -0.0092,-3.778055 c -0.0091,-3.763082 -0.0094,-3.779375 -0.07553,-4.111194 C 19.588816,9.439338 18.622783,8.3937648 17.102214,8.061047 16.715011,7.976322 15.852567,7.984022 15.426412,8.076008 14.461619,8.28426 13.638082,8.7950776 13.157271,9.4834961 L 13.002494,9.7051469 V 8.8475859 7.9900249 H 11.491272 9.9800499 v 5.5062341 5.506235 h 1.5112221 1.511222 l 5.17e-4,-2.820449 z M 6.9428044,6.68698 C 7.5231438,6.5358209 7.9853758,6.0983557 8.1745879,5.521197 8.2386218,5.3258717 8.2532636,5.2239453 8.2541153,4.967581 8.255022,4.6940397 8.2435772,4.6202696 8.1656864,4.3976807 7.9604113,3.8110638 7.522121,3.3990748 6.9428044,3.2481821 6.7198953,3.1901216 6.2756744,3.1891499 6.0598504,3.246252 5.6330059,3.3591827 5.2095459,3.6770244 4.9847677,4.0531903 c -0.318802,0.5335146 -0.318802,1.2959943 0,1.82844 0.218549,0.3650083 0.6260005,0.6801011 1.0285065,0.7953708 0.2336014,0.066899 0.692105,0.071822 0.9295302,0.00998 z"
     id="path339" />
</svg>