<svg
   width="256px"
   height="259px"
   viewBox="0 0 256 259"
   version="1.1"
   preserveAspectRatio="xMidYMid"
   id="svg55"
   sodipodi:docname="steam-seeklogo.com.svg"
   inkscape:version="1.1.1 (3bf5ae0d25, 2021-09-20)"
   xmlns:inkscape="http://www.inkscape.org/namespaces/inkscape"
   xmlns:sodipodi="http://sodipodi.sourceforge.net/DTD/sodipodi-0.dtd"
   xmlns="http://www.w3.org/2000/svg"
   xmlns:svg="http://www.w3.org/2000/svg">
  <defs
     id="defs59" />
  <sodipodi:namedview
     id="namedview57"
     pagecolor="#ffffff"
     bordercolor="#666666"
     borderopacity="1.0"
     inkscape:pageshadow="2"
     inkscape:pageopacity="0.0"
     inkscape:pagecheckerboard="0"
     showgrid="false"
     inkscape:zoom="3.0965251"
     inkscape:cx="128.04676"
     inkscape:cy="129.5"
     inkscape:window-width="1920"
     inkscape:window-height="1011"
     inkscape:window-x="0"
     inkscape:window-y="32"
     inkscape:window-maximized="1"
     inkscape:current-layer="svg55" />
  <g
     id="g53">
    <path
       d="M127.778579,0 C60.4203546,0 5.24030561,52.412282 0,119.013983 L68.7236558,147.68805 C74.5451924,143.665561 81.5845466,141.322185 89.1497766,141.322185 C89.8324924,141.322185 90.5059824,141.340637 91.1702465,141.377541 L121.735621,96.668877 L121.735621,96.0415165 C121.735621,69.1388208 143.425688,47.2457835 170.088511,47.2457835 C196.751333,47.2457835 218.441401,69.1388208 218.441401,96.0415165 C218.441401,122.944212 196.751333,144.846475 170.088511,144.846475 C169.719475,144.846475 169.359666,144.83725 168.99063,144.828024 L125.398299,176.205276 C125.425977,176.786507 125.444428,177.367738 125.444428,177.939743 C125.444428,198.144443 109.160732,214.575753 89.1497766,214.575753 C71.5836817,214.575753 56.8868387,201.917832 53.5655182,185.163615 L4.40997549,164.654462 C19.6326942,218.967277 69.0834655,258.786219 127.778579,258.786219 C198.596511,258.786219 256,200.847629 256,129.393109 C256,57.9293643 198.596511,0 127.778579,0 Z M80.3519677,196.332478 L64.6033732,189.763644 C67.389592,195.63131 72.2239585,200.539484 78.6359521,203.233444 C92.4932392,209.064206 108.472481,202.430791 114.247888,188.435116 C117.043333,181.663313 117.061785,174.190342 114.294018,167.400086 C111.526251,160.609831 106.295171,155.31417 99.5879487,152.491048 C92.9176301,149.695603 85.7767911,149.797088 79.5031858,152.186594 L95.777656,158.976849 C105.999942,163.276114 110.834309,175.122157 106.571948,185.436702 C102.318812,195.751247 90.574254,200.631743 80.3519677,196.332478 Z M202.30901,96.0424391 C202.30901,78.1165345 187.85204,63.5211763 170.092201,63.5211763 C152.323137,63.5211763 137.866167,78.1165345 137.866167,96.0424391 C137.866167,113.968344 152.323137,128.554476 170.092201,128.554476 C187.85204,128.554476 202.30901,113.968344 202.30901,96.0424391 Z M145.938821,95.9870838 C145.938821,82.4988323 156.779242,71.5661525 170.138331,71.5661525 C183.506646,71.5661525 194.347066,82.4988323 194.347066,95.9870838 C194.347066,109.475335 183.506646,120.408015 170.138331,120.408015 C156.779242,120.408015 145.938821,109.475335 145.938821,95.9870838 Z"
       fill="#1A1918"
       id="path51" />
  </g>
  <path
     style="fill:#f9f9f9;stroke-width:0.322943"
     d="M 118.84289,258.34765 C 82.250469,255.3858 50.551384,238.46718 27.419328,209.55254 24.677283,206.12503 19.12051,197.87487 16.796037,193.78009 14.336899,189.44809 10.623603,181.6872 8.9087839,177.29551 6.4157371,170.91076 4.4770943,164.89015 4.9757023,165.081 c 0.1496745,0.0573 11.0627307,4.60921 24.2512357,10.11538 18.186384,7.59278 24.037646,10.16726 24.221448,10.65711 0.133289,0.35524 0.562967,1.73582 0.954839,3.06796 2.787524,9.47602 10.403057,18.24886 19.483397,22.44424 7.733601,3.57314 17.101599,4.29513 25.25677,1.94654 14.834408,-4.27213 25.566798,-17.78359 26.233828,-33.02686 l 0.17299,-3.95342 7.78786,-5.59814 c 4.28333,-3.07897 14.05135,-10.10493 21.70671,-15.61324 l 13.91885,-10.0151 3.5292,-0.20193 c 7.14409,-0.40875 13.47924,-2.14166 19.83029,-5.42437 12.83976,-6.63655 21.96642,-18.66882 25.23553,-33.26963 0.65522,-2.92643 0.75058,-4.21386 0.75058,-10.134104 0,-5.920242 -0.0954,-7.207669 -0.75058,-10.134101 -2.97993,-13.309258 -10.26719,-23.900439 -21.455,-31.182357 -4.93659,-3.213118 -10.09822,-5.335435 -16.30015,-6.702155 -4.65971,-1.02686 -14.65954,-1.029512 -19.36185,-0.0051 -6.2946,1.37125 -12.12177,3.839849 -17.53953,7.430374 -3.79081,2.51229 -10.2844,9.044506 -12.88444,12.96109 -4.98757,7.513044 -7.77606,15.828407 -8.32689,24.831066 l -0.20904,3.416362 -15.13535,22.136935 -15.135342,22.13694 -3.395377,0.21592 c -6.312767,0.40143 -11.654797,1.90834 -16.44755,4.63961 -1.391569,0.79302 -2.67441,1.44186 -2.850766,1.44186 -0.416512,0 -67.79045999,-28.08817 -68.12809372,-28.40258 C -0.21377208,118.29772 1.9283166,104.6133 3.7535284,97.367207 6.3911176,86.895976 11.11493,75.04451 16.346969,65.771807 18.753096,61.507446 24.910944,52.338529 27.769189,48.764339 48.00275,23.462605 76.246658,6.8469905 107.56611,1.8205961 c 7.36526,-1.18203586 11.90721,-1.52609947 20.15771,-1.52699551 10.39262,-0.001129 17.19988,0.70378257 26.96571,2.79237761 46.81544,10.0123118 84.6281,46.4311468 96.88367,93.3124008 6.86287,26.252531 5.37097,53.978311 -4.26612,79.282421 -16.15088,42.40738 -53.7079,73.5019 -97.93974,81.08709 -8.95213,1.53517 -22.44681,2.23357 -30.52445,1.57976 z"
     id="path196" />
  <path
     style="fill:#f9f9f9;stroke-width:0.322943"
     d="m 166.69595,128.1785 c -12.07326,-1.27501 -22.90454,-9.99759 -26.87639,-21.64393 -5.87556,-17.228446 3.65529,-35.95612 21.07974,-41.420705 17.03737,-5.34319 35.35537,5.015099 40.19048,22.726534 0.65557,2.401424 0.74706,3.4524 0.73087,8.396509 -0.017,5.201132 -0.0888,5.883112 -0.90042,8.557982 -3.97114,13.08748 -14.4389,21.89231 -27.82297,23.40293 -1.59857,0.18043 -3.12447,0.30992 -3.3909,0.28775 -0.26643,-0.0222 -1.62111,-0.16035 -3.01041,-0.30707 z m 9.33687,-8.36234 c 3.92837,-0.98643 7.53573,-2.95758 10.47791,-5.72537 4.28644,-4.03238 6.65043,-8.42034 7.62313,-14.14983 1.83733,-10.822357 -3.94321,-21.804435 -13.8387,-26.291263 -3.53936,-1.60482 -5.84221,-2.080031 -10.10439,-2.085114 -4.68541,-0.0056 -6.86111,0.502978 -11.14152,2.604315 -2.59474,1.273811 -3.51826,1.958673 -5.98738,4.44012 -3.2256,3.241714 -4.96962,6.140699 -6.33069,10.523152 -0.98803,3.181305 -1.07233,9.96051 -0.16465,13.24065 2.37335,8.57677 9.28174,15.3872 17.70769,17.4566 3.3318,0.81828 8.47015,0.81249 11.7586,-0.0132 z"
     id="path235" />
  <path
     style="fill:#f9f9f9;stroke-width:0.322943"
     d="m 83.642145,204.61067 c -6.146109,-1.4151 -11.538404,-4.71244 -15.24246,-9.32062 -1.964482,-2.444 -3.656668,-5.27748 -2.988777,-5.00456 0.258165,0.10549 3.975225,1.65537 8.260133,3.44418 9.011087,3.76185 10.597483,4.23417 14.221312,4.23417 3.631685,0 5.578548,-0.45593 8.99044,-2.10547 3.555197,-1.71881 5.759537,-3.61909 7.885727,-6.79802 2.42703,-3.62871 3.35468,-6.78418 3.36371,-11.4419 0.006,-3.22198 -0.11047,-4.056 -0.88127,-6.29738 -1.57361,-4.57588 -4.12939,-8.01 -7.77465,-10.44653 -1.436607,-0.96025 -5.385314,-2.81429 -10.750825,-5.04786 -4.883574,-2.03295 -8.307766,-3.62656 -8.073566,-3.75743 0.223676,-0.12498 1.288479,-0.45561 2.366227,-0.73473 10.471369,-2.7119 22.201004,1.94106 28.407464,11.26879 6.95441,10.45184 6.15097,23.49697 -2.05254,33.32599 -2.7604,3.30737 -7.95317,6.61913 -12.81322,8.17181 -2.883899,0.92135 -9.923202,1.19902 -12.917705,0.50956 z"
     id="path274" />
</svg>